<svg width="900" height="900" viewBox="0 0 900 900" fill="none" xmlns="http://www.w3.org/2000/svg">
<g id="Frame 1">
<rect width="900" height="900" fill="none"/>


<g id="kettle-pot" filter="url(#filter0_i_1_2)">
<path d="M792.012 569C764.317 594.83 747 631.642 747 672.5C747 677.951 747.308 683.329 747.908 688.619L747.918 688.622L748.878 697.056C748.957 698.916 748.998 700.786 748.998 702.665C748.998 775.29 690.124 834.165 617.499 834.165C617.095 834.165 616.691 834.161 616.287 834.157C611.216 840.409 605.765 846.368 599.967 852.001H584.865C585.198 854.807 584.155 857.79 581.323 859.956C579.629 861.252 577.537 861.938 575.403 861.938H324.446C322.313 861.938 320.221 861.252 318.526 859.956C315.695 857.79 314.651 854.807 314.984 852.001H300.033C287.261 839.593 276.174 825.607 267.122 810.379C264.106 810.573 261.065 810.673 258 810.673C180.681 810.673 118.001 747.992 118 670.673C118 635.863 130.705 604.021 151.73 579.529C163.419 565.914 183.498 566.787 199.519 574.87C223.229 586.832 250.706 593.672 280 593.672C280.228 593.672 280.456 593.669 280.684 593.668C287.475 584.869 295.005 576.62 303.186 569.001H596.814C635.801 605.312 660 655.965 660 712.001C660 720.502 659.442 728.879 658.361 737.101C683.39 732.134 702.36 710.338 702.981 684H702.998V674.396L703.008 674.399C703.003 673.934 703 673.467 703 673C703 630.474 723.42 592.718 754.989 569H792.012ZM225.304 611.86C208.712 605.027 188.348 603.875 177.972 618.516C166.653 634.485 160 653.995 160 675.059C160 726.408 199.533 768.521 249.823 772.629C243.443 753.506 240 733.136 240 712.001C240 679.152 248.315 648.153 263.051 620.809C249.662 619.754 236.943 616.654 225.304 611.86ZM595.5 544C602.404 544 608 549.596 608 556.5C608 563.404 602.404 569 595.5 569H303.5C296.596 569 291 563.404 291 556.5C291 549.596 296.596 544 303.5 544H595.5Z" fill="#C8B9A4"/>
</g>


<g id="kettle-lid" filter="url(#filter1_i_1_2)">
<path d="M450 445C472.091 445 490 462.909 490 485C490 491.877 488.264 498.348 485.207 504H537C548.598 504 558 513.402 558 525H583.5C588.747 525 593 529.253 593 534.5C593 539.747 588.747 544 583.5 544H316.5C311.253 544 307 539.747 307 534.5C307 529.253 311.253 525 316.5 525H342C342 513.402 351.402 504 363 504H414.793C411.736 498.348 410 491.877 410 485C410 462.909 427.909 445 450 445Z" fill="#E8E2D8"/>
</g>


<g id="kettle-image" filter="url(#filter2_i_1_2)">
<g clip-path="url(#clip0_1_2)">
<g id="Group">
<path id="Vector" d="M640.037 753.828C638.205 734.575 620.797 719.863 601.473 721.09C579.043 722.528 563.182 738.677 564.873 760.07C569.803 752.38 572.486 743.656 578.904 737.053C588.628 727.07 600.763 725.454 613.313 728.167C623.608 730.394 629.045 738.58 631.384 748.558C634.077 760.088 628.281 773.522 618.478 779.23C608.726 784.896 598.285 784.132 590.147 777.15C583.36 771.336 580.816 761.351 584.341 754.223C587.513 747.75 598.554 742.603 606.051 744.086C612.998 745.462 617.838 752.16 616.777 758.981C615.716 765.753 610.235 769.986 603.527 768.725C601.511 768.338 598.915 767.024 598.047 765.363C596.107 761.648 599.325 760.646 602.123 759.831C604.534 759.137 606.254 757.843 605.247 755.089C604.378 752.765 602.264 751.737 599.933 751.581C595.584 751.291 592.192 753.167 590.296 757.08C588.105 761.62 589.235 765.866 592.243 769.681C597.855 776.817 608.588 777.731 616.585 771.766C624.092 766.171 626.045 755.412 621.015 747.584C616.172 740.087 605.967 736.807 595.392 739.349C583.396 742.252 577.769 747.925 577.041 758.325C576.227 770.014 580.511 779.579 590.755 785.426C601.416 791.529 612.652 790.94 622.929 784.532C634.049 777.59 641.38 767.951 640.037 753.828Z" fill="#171715"/>
<path id="Vector_2" d="M557.563 693.536C554.678 679.886 560.077 668.912 569.321 659.993C576.895 652.683 586.727 652.711 596.31 656.319C607.384 660.5 615.337 672.776 614.627 684.101C613.917 695.36 607.461 703.61 597.142 706.49C588.523 708.896 578.827 705.453 574.863 698.563C571.258 692.319 573.108 680.299 578.51 674.885C583.526 669.865 591.795 669.589 596.853 674.257C601.895 678.908 602.359 685.805 597.58 690.681C596.135 692.139 593.609 693.569 591.751 693.372C587.585 692.903 588.541 689.69 589.42 686.897C590.173 684.511 590.058 682.356 587.219 681.67C584.79 681.096 582.773 682.285 581.343 684.135C578.679 687.589 578.364 691.442 580.554 695.196C583.106 699.542 587.262 700.969 592.11 700.602C601.16 699.908 607.894 691.486 607.379 681.531C606.902 672.184 599.046 664.569 589.743 664.398C580.834 664.254 572.417 670.916 568.655 681.111C564.397 692.682 565.972 700.52 574.215 706.911C583.475 714.098 593.806 715.845 604.353 710.585C615.357 705.127 621.12 695.455 621.504 683.356C621.925 670.255 617.997 658.796 605.511 652.053C588.5 642.875 566.59 649.147 556.864 665.899C545.585 685.339 550.191 707.495 568.904 717.997C565.242 709.616 559.482 702.539 557.563 693.536Z" fill="#171715"/>
<path id="Vector_3" d="M531.126 674.662C524.94 670.07 517.735 667.319 512.56 661.543C504.681 652.77 504.019 642.462 507.025 632.046C509.485 623.509 516.698 619.397 525.215 617.995C535.092 616.399 546.069 622.038 550.312 630.612C554.529 639.149 553.292 647.904 546.945 654.356C541.664 659.744 533.109 661.31 527.3 657.943C522.04 654.886 518.33 645.316 520 639.077C521.566 633.294 527.49 629.612 533.158 630.888C538.805 632.182 542.051 637.022 540.606 642.608C540.168 644.286 538.91 646.405 537.467 647.033C534.221 648.445 533.57 645.696 533.047 643.279C532.591 641.214 531.592 639.69 529.224 640.381C527.211 640.973 526.234 642.713 525.963 644.663C525.473 648.307 526.862 651.271 530.049 653.085C533.749 655.194 537.375 654.474 540.78 652.17C547.112 647.85 548.477 638.872 543.924 631.78C539.64 625.144 530.698 622.889 523.813 626.676C517.228 630.325 513.892 638.736 515.409 647.776C517.174 658.048 521.63 663.111 530.349 664.326C540.152 665.671 548.447 662.619 553.955 654.312C559.69 645.693 559.838 636.192 555.042 627.178C549.835 617.411 542.131 610.685 530.162 611.01C513.843 611.456 500.45 625.267 500.394 641.616C500.317 660.593 513.023 674.857 531.126 674.662Z" fill="#171715"/>
<path id="Vector_4" d="M492.067 666.66C473.964 659.762 452.99 668.689 445.554 686.528C440.096 699.618 444.242 711.005 452.818 720.916C460.748 730.084 471.325 733.955 483.301 731.28C494.824 728.718 501.737 720.862 504.419 709.45C506.8 699.296 503.089 692.211 492.494 685.89C483.147 680.337 472.437 680.458 465.593 686.179C458.473 692.178 457.161 703.031 462.677 710.59C468.54 718.651 479.084 720.959 486.555 715.799C490.55 713.032 492.881 709.306 492.128 704.333C491.475 700.033 488.8 697.238 484.551 696.231C482.271 695.698 479.934 696.044 478.428 698.012C476.642 700.336 477.915 702.088 480.011 703.462C482.445 705.071 485.215 706.975 482.274 709.955C480.962 711.284 478.077 711.766 476.047 711.541C469.26 710.759 465.283 705.096 466.28 698.319C467.277 691.501 473.877 686.518 480.923 687.263C488.538 688.065 497.534 696.241 498.675 703.362C499.922 711.21 494.544 720.001 486.337 723.547C476.501 727.813 466.306 725.451 458.655 717.154C450.978 708.807 449.436 694.268 455.406 684.04C460.587 675.215 468.199 669.002 478.686 669.917C491.493 671.039 502.597 676.163 508.936 688.585C513.11 696.787 513.092 705.922 515.527 714.71C523.439 694.794 513.075 674.662 492.067 666.66Z" fill="#171715"/>
<path id="Vector_5" d="M475.581 745.585C456.52 742.165 437.567 754.809 433.542 773.721C430.595 787.594 436.783 798.009 447.045 806.175C456.538 813.706 467.633 815.566 478.914 810.715C489.761 806.07 495.108 797.061 495.623 785.364C496.079 774.949 491.134 768.676 479.56 764.415C469.332 760.69 458.826 762.783 453.171 769.678C447.283 776.894 447.998 787.811 454.827 794.202C462.091 801.051 472.855 801.366 479.245 794.901C482.668 791.437 484.275 787.353 482.604 782.6C481.169 778.505 478.018 776.243 473.664 776.04C471.328 775.935 469.101 776.717 467.976 778.925C466.657 781.539 468.217 783.02 470.538 783.994C473.231 785.116 476.311 786.466 473.957 789.938C472.909 791.498 470.177 792.498 468.138 792.657C461.317 793.149 456.367 788.319 456.09 781.47C455.811 774.585 461.371 768.466 468.435 767.895C476.065 767.272 486.427 773.647 488.843 780.427C491.526 787.906 487.875 797.535 480.457 802.549C471.584 808.558 461.12 808.128 452.072 801.384C442.979 794.604 438.777 780.604 442.751 769.44C446.21 759.803 452.541 752.298 463.021 751.253C475.796 749.982 487.665 752.972 496.197 764.003C501.816 771.3 503.487 780.278 507.512 788.46C511.624 767.426 497.704 749.557 475.581 745.585Z" fill="#171715"/>
<path id="Vector_6" d="M548.003 845.447C564.75 783.85 560.548 741.575 525.207 684.724C531.958 706.298 548.595 754.297 548.595 776.437C548.075 782.917 533.619 774.5 511.963 742.987C518.156 763.644 522.524 766.678 537.014 781.524C544.019 788.688 548.682 790.625 546.704 799.49C544.339 810.021 542.797 820.806 539.627 831.065C536.504 841.088 536.637 842.308 520.836 849.705L558.729 849.995C557.035 849.718 551.898 844.486 548.003 845.447Z" fill="#171715"/>
</g>
</g>
</g>


<g id="kettle-saucer" filter="url(#filter3_i_1_2)">
<path d="M640.869 850C647.085 850 650.88 856.754 647.368 861.883C638.497 874.836 628.33 886.869 617.05 897.803C615.584 899.224 613.616 900 611.574 900H288.138C286.097 900 284.129 899.224 282.663 897.803C271.382 886.869 261.215 874.836 252.344 861.882C248.831 856.754 252.627 850 258.843 850H640.869Z" fill="#D8D2C8"/>
</g>


<g id="smoke">
<path id="Vector_7" d="M740.672 419.651C738.498 422.533 735.553 427.568 734.355 430.449C731.166 438.201 731.795 445.422 736.041 449.927C740.164 454.266 747.355 456.585 760.944 458.009C763.645 458.274 768.073 458.738 770.795 459.003C778.27 459.765 782.577 460.759 784.831 462.183C789.97 465.496 789.523 472.717 783.856 478.116C781.358 480.501 778.311 482.489 768.906 487.888C756.962 494.712 751.641 499.548 750.036 504.981C749.63 506.339 749.569 506.968 749.65 508.989C749.894 515.349 752.616 519.986 758.953 524.988C769.353 533.203 768.703 532.64 770.125 534.992C771.262 536.847 771.527 537.476 771.811 539.199C772.542 543.472 772.156 548.971 770.734 554.767C770.389 556.159 770.145 557.351 770.186 557.417C770.227 557.484 770.694 557.02 771.262 556.424C775.934 551.256 777.62 540.988 774.959 533.799C773.72 530.421 771.791 527.936 766.002 522.239C761.512 517.866 760.03 515.581 759.441 512.235C758.831 508.79 759.441 506.405 761.512 504.153C762.873 502.695 765.128 501.337 770.937 498.389C781.297 493.155 786.091 488.783 789.137 481.826C791.108 477.354 791.758 473.247 791.595 466.489C791.473 461.554 791.148 459.169 790.194 456.022C788.061 448.999 784.12 445.024 777.072 442.805C774.187 441.878 771.039 441.281 764.031 440.288C750.645 438.366 746.4 436.511 743.414 431.278C742.012 428.826 741.484 426.574 741.484 423.129C741.484 421.738 741.566 420.048 741.687 419.452C741.789 418.823 741.87 418.259 741.83 418.226C741.809 418.193 741.281 418.823 740.672 419.651Z" fill="black"/>
</g>
</g>


<defs>
<filter id="filter0_i_1_2" x="114" y="540" width="678.012" height="321.938" filterUnits="userSpaceOnUse" color-interpolation-filters="sRGB">
<feFlood flood-opacity="0" result="BackgroundImageFix"/>
<feBlend mode="normal" in="SourceGraphic" in2="BackgroundImageFix" result="shape"/>
<feColorMatrix in="SourceAlpha" type="matrix" values="0 0 0 0 0 0 0 0 0 0 0 0 0 0 0 0 0 0 127 0" result="hardAlpha"/>
<feOffset dx="-8" dy="-4"/>
<feGaussianBlur stdDeviation="2"/>
<feComposite in2="hardAlpha" operator="arithmetic" k2="-1" k3="1"/>
<feColorMatrix type="matrix" values="0 0 0 0 0 0 0 0 0 0 0 0 0 0 0 0 0 0 0.25 0"/>
<feBlend mode="normal" in2="shape" result="effect1_innerShadow_1_2"/>
</filter>
<filter id="filter1_i_1_2" x="303" y="441" width="290" height="103" filterUnits="userSpaceOnUse" color-interpolation-filters="sRGB">
<feFlood flood-opacity="0" result="BackgroundImageFix"/>
<feBlend mode="normal" in="SourceGraphic" in2="BackgroundImageFix" result="shape"/>
<feColorMatrix in="SourceAlpha" type="matrix" values="0 0 0 0 0 0 0 0 0 0 0 0 0 0 0 0 0 0 127 0" result="hardAlpha"/>
<feOffset dx="-8" dy="-4"/>
<feGaussianBlur stdDeviation="2"/>
<feComposite in2="hardAlpha" operator="arithmetic" k2="-1" k3="1"/>
<feColorMatrix type="matrix" values="0 0 0 0 0 0 0 0 0 0 0 0 0 0 0 0 0 0 0.25 0"/>
<feBlend mode="normal" in2="shape" result="effect1_innerShadow_1_2"/>
</filter>
<filter id="filter2_i_1_2" x="413" y="607" width="243" height="243" filterUnits="userSpaceOnUse" color-interpolation-filters="sRGB">
<feFlood flood-opacity="0" result="BackgroundImageFix"/>
<feBlend mode="normal" in="SourceGraphic" in2="BackgroundImageFix" result="shape"/>
<feColorMatrix in="SourceAlpha" type="matrix" values="0 0 0 0 0 0 0 0 0 0 0 0 0 0 0 0 0 0 127 0" result="hardAlpha"/>
<feOffset dx="-8" dy="-4"/>
<feGaussianBlur stdDeviation="2"/>
<feComposite in2="hardAlpha" operator="arithmetic" k2="-1" k3="1"/>
<feColorMatrix type="matrix" values="0 0 0 0 0 0 0 0 0 0 0 0 0 0 0 0 0 0 0.25 0"/>
<feBlend mode="normal" in2="shape" result="effect1_innerShadow_1_2"/>
</filter>
<filter id="filter3_i_1_2" x="247" y="846" width="401.712" height="54" filterUnits="userSpaceOnUse" color-interpolation-filters="sRGB">
<feFlood flood-opacity="0" result="BackgroundImageFix"/>
<feBlend mode="normal" in="SourceGraphic" in2="BackgroundImageFix" result="shape"/>
<feColorMatrix in="SourceAlpha" type="matrix" values="0 0 0 0 0 0 0 0 0 0 0 0 0 0 0 0 0 0 127 0" result="hardAlpha"/>
<feOffset dx="-8" dy="-4"/>
<feGaussianBlur stdDeviation="2"/>
<feComposite in2="hardAlpha" operator="arithmetic" k2="-1" k3="1"/>
<feColorMatrix type="matrix" values="0 0 0 0 0 0 0 0 0 0 0 0 0 0 0 0 0 0 0.25 0"/>
<feBlend mode="normal" in2="shape" result="effect1_innerShadow_1_2"/>
</filter>
<clipPath id="clip0_1_2">
<rect width="239" height="239" fill="white" transform="translate(417 611)"/>
</clipPath>
</defs>
</svg>
